<?xml version="1.0" standalone="no"?>
<!DOCTYPE svg PUBLIC "-//W3C//DTD SVG 20010904//EN"
 "http://www.w3.org/TR/2001/REC-SVG-20010904/DTD/svg10.dtd">
<svg version="1.0" xmlns="http://www.w3.org/2000/svg"
 width="600.000000pt" height="600.000000pt" viewBox="0 0 600.000000 600.000000"
 preserveAspectRatio="xMidYMid meet">
<g transform="translate(0.000000,600.000000) scale(0.100000,-0.100000)"
fill="#000000" stroke="none">
<path d="M2920 4079 l0 -567 71 -83 c38 -46 73 -85 77 -86 4 -2 7 290 7 647 0
358 -2 650 -5 651 -3 0 -38 2 -77 3 l-73 3 0 -568z m106 542 c-3 -5 1 -12 10
-15 8 -3 12 -2 9 4 -3 6 -1 10 4 10 8 0 11 -190 11 -620 0 -341 -2 -620 -4
-620 -2 0 -31 32 -65 72 l-61 72 3 528 c1 344 5 528 12 528 5 0 3 4 -5 10 -12
8 -12 10 4 16 14 5 15 9 4 15 -8 6 5 9 35 9 27 0 46 -4 43 -9z"/>
<path d="M2985 3511 c-3 -5 -2 -12 3 -15 5 -3 9 1 9 9 0 17 -3 19 -12 6z"/>
<path d="M3665 4113 c-289 -473 -508 -840 -509 -851 -1 -14 93 -140 105 -141
13 -2 310 509 303 520 -4 8 -3 9 4 5 9 -5 12 -143 12 -519 -1 -420 -3 -508
-13 -489 -13 23 -136 168 -537 636 -367 429 -628 738 -718 851 -30 39 -59 74
-64 79 -4 6 -8 -405 -8 -912 l0 -922 75 0 75 0 2 694 3 694 140 -161 c187
-214 665 -767 729 -843 28 -33 109 -130 181 -215 71 -85 134 -157 140 -161 5
-4 44 -8 85 -8 l76 0 3 935 c1 514 1 935 -2 935 -2 0 -39 -57 -82 -127z
m-1350 -19 c17 -21 41 -49 55 -62 14 -13 18 -21 10 -17 -8 4 -1 -6 17 -22 26
-24 30 -33 20 -43 -7 -8 -8 -10 -1 -7 6 4 31 -15 55 -41 86 -94 114 -127 99
-117 -9 6 -6 1 7 -10 13 -12 23 -23 23 -27 0 -3 18 -24 40 -47 23 -23 38 -46
35 -52 -4 -5 -1 -8 7 -7 7 2 12 -3 10 -10 -1 -8 2 -11 8 -7 6 4 16 -7 23 -24
7 -17 16 -28 20 -24 4 3 7 -1 7 -10 0 -8 16 -25 35 -37 32 -20 51 -40 23 -24
-7 4 -3 -3 10 -15 19 -19 21 -25 10 -39 -10 -12 -10 -14 -1 -8 17 10 84 -42
81 -63 -2 -8 2 -16 9 -16 16 0 84 -91 75 -100 -4 -5 -2 -5 4 -2 15 9 58 -38
49 -54 -5 -7 -4 -10 2 -6 13 8 76 -57 66 -68 -5 -4 -3 -5 3 -2 7 4 18 -1 25
-10 12 -14 12 -16 -1 -9 -8 4 5 -12 30 -35 25 -23 39 -39 31 -34 -9 5 -7 -2 5
-17 10 -14 22 -24 27 -21 4 2 7 0 7 -6 0 -5 -3 -11 -7 -14 -5 -2 -3 -3 3 -1
13 3 60 -47 107 -115 18 -25 35 -47 39 -49 17 -8 66 -61 60 -66 -3 -3 0 -6 7
-6 7 0 10 -4 7 -9 -3 -5 2 -15 11 -22 14 -12 16 -12 9 1 -4 8 0 6 8 -5 9 -11
23 -27 30 -37 8 -9 12 -19 9 -21 -2 -3 5 -8 16 -12 11 -3 23 -16 27 -27 6 -20
7 -20 16 -4 6 11 10 206 9 519 -2 462 -3 503 -19 520 -17 16 -18 16 -20 -8 -1
-14 -18 -50 -37 -81 -19 -30 -35 -59 -35 -65 0 -5 -7 -12 -15 -15 -8 -4 -13
-9 -11 -13 7 -11 -22 -43 -33 -37 -5 4 -13 2 -16 -4 -4 -6 -3 -10 2 -9 19 3
23 -2 11 -15 -7 -8 -17 -11 -22 -8 -5 3 -6 0 -3 -6 4 -5 4 -17 1 -26 -5 -14
-9 -14 -23 -4 -14 12 -15 11 -2 -5 12 -16 11 -21 -7 -47 -12 -16 -22 -34 -22
-40 0 -5 -4 -11 -10 -11 -5 -1 -14 -2 -19 -3 -5 0 -13 -4 -17 -8 -3 -4 4 -5
17 -3 l24 4 -25 -20 c-14 -11 -19 -18 -12 -14 6 3 3 -10 -9 -29 -20 -34 -21
-35 -45 -20 -13 9 -24 20 -24 24 0 4 -12 19 -26 33 -23 23 -24 28 -13 49 7 13
12 26 11 31 -1 4 3 7 8 7 6 0 10 -5 10 -12 0 -6 3 -8 6 -5 4 4 2 13 -5 20 -8
11 -6 18 9 32 11 10 17 21 15 25 -3 4 2 10 9 13 8 3 20 16 26 28 9 16 9 20 0
14 -14 -9 35 69 64 103 11 12 16 22 12 22 -4 0 2 14 14 30 12 17 26 28 31 25
5 -4 6 1 3 9 -7 20 14 58 28 50 7 -4 8 -2 4 5 -11 17 41 94 57 84 9 -5 9 -3 0
8 -10 13 -9 19 7 36 10 12 17 23 15 25 -2 2 5 14 17 28 11 14 16 19 12 11 -5
-9 -3 -12 5 -7 6 4 10 15 9 24 -2 10 3 16 10 14 8 -1 11 2 7 9 -4 6 2 17 14
25 12 8 21 20 21 26 0 7 -7 3 -16 -8 -15 -19 -15 -18 -5 2 5 11 17 26 25 34 9
7 16 19 16 26 0 8 4 14 10 14 5 0 9 4 7 9 -1 5 7 17 18 26 11 9 14 13 7 10 -8
-4 1 16 20 44 18 28 37 51 41 51 4 0 7 -398 6 -885 l-1 -885 -69 0 c-66 0 -70
1 -88 30 -10 16 -21 27 -24 23 -6 -6 -11 11 -8 30 0 4 -4 6 -10 5 -13 -3 -49
53 -42 64 2 4 -2 5 -10 2 -16 -6 -51 41 -42 57 4 5 3 8 -2 7 -13 -5 -83 64
-76 75 3 6 1 7 -4 4 -6 -4 -17 1 -24 10 -11 13 -11 15 -1 9 11 -7 11 -4 1 12
-7 12 -16 19 -20 17 -6 -4 -29 18 -43 42 -4 8 2 10 21 7 20 -3 24 -2 13 5 -8
5 -17 8 -21 5 -4 -2 -10 0 -14 6 -4 6 -11 7 -17 4 -7 -5 -8 -2 -4 5 5 8 0 14
-14 18 -12 3 -19 11 -16 19 3 7 0 16 -6 20 -7 5 -8 2 -3 -6 6 -9 4 -11 -4 -5
-7 4 -10 16 -7 28 3 14 2 17 -6 9 -13 -13 -83 62 -72 79 4 8 3 9 -4 5 -13 -8
-12 20 0 40 4 6 1 11 -6 11 -7 0 -13 -7 -12 -16 1 -9 -3 -16 -9 -16 -5 0 -10
5 -10 12 0 6 -4 15 -9 20 -5 5 -6 2 -2 -7 4 -8 -2 -4 -13 10 -20 24 -25 36
-22 53 1 5 -3 6 -8 3 -5 -4 -16 3 -24 14 -7 11 -16 18 -18 16 -3 -3 -16 12
-29 32 -14 20 -43 53 -65 73 -36 33 -38 38 -25 55 13 17 13 18 -1 7 -13 -11
-21 -7 -50 24 -19 21 -27 32 -18 25 13 -10 19 -9 29 3 9 10 9 15 1 15 -6 0
-11 -5 -11 -11 0 -6 -14 -1 -30 11 -17 12 -28 26 -24 31 3 5 2 8 -3 7 -14 -5
-50 37 -45 53 3 8 1 11 -3 7 -10 -9 -85 69 -85 88 0 9 5 12 12 8 7 -4 8 -3 4
5 -4 6 -12 9 -17 5 -13 -8 -40 16 -32 29 3 5 2 7 -4 4 -6 -4 -24 11 -41 32
-24 30 -28 41 -19 52 8 9 6 8 -7 -1 -17 -13 -20 -13 -30 4 -40 65 -106 118
-106 84 0 -7 -2 -317 -3 -689 l-2 -675 -57 -2 -58 -2 -1 198 c0 108 -2 510 -5
892 -5 776 -12 707 61 614z"/>
<path d="M2276 4103 c-6 -14 -5 -15 5 -6 7 7 10 15 7 18 -3 3 -9 -2 -12 -12z"/>
<path d="M2446 3751 c-3 -5 2 -15 12 -22 15 -12 16 -12 5 2 -7 9 -10 19 -6 22
3 4 4 7 0 7 -3 0 -8 -4 -11 -9z"/>
<path d="M2610 3716 c0 -2 8 -10 18 -17 15 -13 16 -12 3 4 -13 16 -21 21 -21
13z"/>
<path d="M3440 3516 c0 -2 8 -10 18 -17 15 -13 16 -12 3 4 -13 16 -21 21 -21
13z"/>
<path d="M2655 3500 c-3 -5 -1 -11 5 -15 5 -3 10 -3 10 1 0 4 9 -1 20 -11 15
-13 19 -14 15 -4 -7 20 -43 41 -50 29z"/>
<path d="M2775 3430 c-4 -6 -11 -8 -16 -5 -5 3 -6 -1 -3 -10 4 -9 7 -15 8 -13
1 2 8 11 15 21 7 9 11 17 8 17 -3 0 -9 -5 -12 -10z"/>
<path d="M2720 3426 c0 -2 8 -10 18 -17 15 -13 16 -12 3 4 -13 16 -21 21 -21
13z"/>
<path d="M3256 3192 c-3 -5 1 -9 9 -9 8 0 12 4 9 9 -3 4 -7 8 -9 8 -2 0 -6 -4
-9 -8z"/>
<path d="M3135 2940 c10 -11 20 -20 23 -20 3 0 -3 9 -13 20 -10 11 -20 20 -23
20 -3 0 3 -9 13 -20z"/>
<path d="M3585 2469 c-4 -6 -5 -12 -2 -15 2 -3 7 2 10 11 7 17 1 20 -8 4z"/>
<path d="M1994 4220 c-147 -21 -255 -79 -370 -194 -75 -76 -99 -108 -132 -177
-67 -138 -77 -189 -77 -384 0 -195 12 -250 91 -435 48 -110 172 -332 189 -337
6 -1 36 21 69 50 l59 53 -70 116 c-128 211 -174 353 -176 538 -1 176 40 313
129 430 88 115 230 180 396 180 l58 0 0 85 0 85 -57 -1 c-32 -1 -81 -5 -109
-9z m56 -20 c-13 -8 -13 -10 2 -10 9 0 20 5 23 10 10 16 62 12 69 -6 3 -9 6
-38 6 -65 l0 -49 -47 -1 c-94 -3 -131 -7 -152 -18 -16 -9 -21 -9 -21 1 0 9 -3
10 -8 2 -15 -23 -47 -33 -67 -21 -19 10 -19 9 -5 -8 8 -10 10 -16 4 -12 -6 3
-20 -1 -30 -11 -11 -9 -25 -18 -32 -20 -7 -1 -28 -20 -48 -42 -20 -22 -40 -38
-44 -35 -5 3 -12 0 -16 -6 -4 -8 -3 -9 4 -5 7 4 12 2 12 -3 0 -6 -9 -16 -20
-23 -11 -7 -20 -18 -20 -25 0 -7 -5 -13 -11 -13 -5 0 -8 -4 -5 -9 3 -4 -6 -23
-19 -41 -13 -18 -22 -37 -19 -42 3 -5 -1 -19 -8 -31 -8 -12 -21 -62 -28 -112
-15 -97 -20 -276 -8 -268 5 2 7 -6 7 -19 -1 -13 9 -54 21 -93 12 -38 23 -77
24 -87 1 -9 7 -22 13 -30 18 -23 27 -41 17 -35 -5 3 -10 -3 -10 -13 0 -10 4
-18 8 -17 5 1 16 -11 26 -28 9 -16 20 -31 25 -33 4 -2 7 -9 7 -15 0 -6 8 -19
17 -29 16 -18 16 -18 -2 -12 -17 7 -18 6 -5 -8 8 -9 17 -14 19 -12 2 2 13 -11
25 -29 38 -56 40 -61 25 -52 -8 5 -5 -2 6 -16 11 -13 16 -21 11 -17 -5 4 -17
-4 -28 -17 -11 -14 -26 -25 -34 -25 -8 0 -13 -4 -10 -9 3 -5 0 -14 -8 -20 -16
-14 -48 17 -51 51 -4 38 -5 39 -17 32 -8 -5 -9 -2 -5 9 4 10 2 16 -6 14 -7 -1
-11 6 -11 15 1 10 -2 16 -6 13 -5 -3 -11 -1 -15 5 -3 5 0 10 7 10 7 0 2 7 -10
16 -12 8 -19 20 -16 26 4 6 -1 17 -11 25 -11 7 -15 13 -11 13 4 0 1 7 -8 15
-8 9 -12 23 -9 32 5 12 3 14 -7 8 -9 -5 -11 -4 -6 3 4 7 2 12 -3 12 -6 0 -10
3 -9 8 0 4 -6 24 -15 44 -10 21 -17 42 -17 48 0 6 -4 18 -9 28 -15 28 -42 152
-47 217 -3 33 -7 65 -9 72 -9 28 18 225 41 293 28 86 44 121 53 116 3 -2 7 6
7 19 2 31 36 76 53 70 11 -5 12 -3 1 10 -7 9 -9 15 -4 13 5 -2 10 1 11 5 5 16
139 139 162 148 13 5 33 7 45 3 21 -6 21 -6 1 10 -19 15 -19 16 -1 9 13 -4 17
-3 12 5 -5 8 -1 10 10 5 13 -5 15 -3 9 7 -5 8 -4 11 2 7 6 -4 25 -4 43 -1 23
5 28 9 18 16 -9 7 -7 8 10 5 12 -3 22 -1 22 3 0 4 10 6 23 3 18 -4 19 -3 7 6
-19 13 -9 14 25 1 15 -6 24 -6 20 -1 -5 8 8 12 60 19 6 1 3 -3 -5 -8z"/>
<path d="M1697 3984 c-3 -3 -3 -13 0 -22 4 -10 2 -13 -5 -8 -8 5 -10 2 -6 -9
4 -9 7 -15 8 -13 1 2 10 13 21 26 18 22 18 23 0 16 -13 -5 -16 -4 -11 4 8 13
3 16 -7 6z"/>
<path d="M1729 3953 l-24 -28 28 24 c25 23 32 31 24 31 -2 0 -14 -12 -28 -27z"/>
<path d="M1546 3893 c-6 -14 -5 -15 5 -6 7 7 10 15 7 18 -3 3 -9 -2 -12 -12z"/>
<path d="M1580 3861 c0 -6 4 -13 10 -16 6 -3 7 1 4 9 -7 18 -14 21 -14 7z"/>
<path d="M1614 3820 c0 -13 4 -16 10 -10 7 7 7 13 0 20 -6 6 -10 3 -10 -10z"/>
<path d="M1743 2775 c0 -8 4 -12 9 -9 5 3 6 10 3 15 -9 13 -12 11 -12 -6z"/>
<path d="M1696 2728 c3 -5 10 -6 15 -3 13 9 11 12 -6 12 -8 0 -12 -4 -9 -9z"/>
<path d="M3810 4145 l0 -85 70 0 c258 0 445 -152 517 -420 23 -85 23 -279 0
-372 -23 -95 -76 -219 -134 -318 l-51 -84 56 -63 c31 -35 58 -63 61 -63 9 0
95 155 145 260 25 52 57 136 72 185 26 84 28 102 28 270 0 175 0 182 -31 273
-78 232 -239 399 -448 465 -55 18 -184 37 -246 37 l-39 0 0 -85z m102 47 c49
1 141 -13 156 -24 8 -7 12 -7 12 -1 0 6 21 0 47 -14 26 -13 53 -21 61 -18 7 2
10 0 7 -5 -3 -6 6 -15 22 -21 15 -5 36 -20 46 -32 16 -19 18 -19 13 -3 -6 16
-4 17 9 6 9 -7 14 -19 11 -26 -3 -8 0 -11 8 -8 7 3 21 -6 32 -18 l19 -23 -25
20 -25 20 19 -22 c11 -13 23 -23 27 -23 13 0 59 -46 59 -59 0 -6 4 -11 9 -11
5 0 17 -12 27 -27 17 -27 17 -28 -1 -13 -17 14 -18 14 -6 -8 7 -13 17 -20 24
-16 7 4 9 4 5 -1 -4 -4 2 -19 12 -33 11 -13 20 -36 20 -49 0 -16 4 -22 12 -17
7 4 8 3 4 -5 -4 -6 -2 -18 4 -26 6 -8 8 -20 4 -26 -5 -8 -3 -9 5 -5 8 5 11 3
10 -5 -2 -8 2 -37 9 -66 18 -82 23 -192 13 -273 -23 -167 -31 -201 -44 -193
-6 4 -8 0 -4 -10 3 -10 2 -17 -4 -17 -6 0 -8 -4 -4 -9 3 -5 0 -13 -6 -16 -5
-4 -8 -14 -5 -22 3 -8 -6 -26 -20 -40 -14 -14 -20 -24 -12 -21 8 4 5 -13 -12
-47 -14 -29 -28 -51 -32 -49 -4 3 -5 -1 -3 -8 3 -8 -4 -24 -15 -36 -11 -12
-18 -22 -15 -22 4 0 -1 -7 -9 -16 -9 -8 -14 -20 -11 -25 4 -5 -1 -9 -9 -9 -8
0 -18 -5 -22 -12 -5 -7 -3 -8 7 -3 11 7 12 6 2 -7 -7 -8 -10 -18 -6 -21 3 -4
0 -7 -9 -7 -8 0 -21 11 -28 25 -7 13 -17 22 -22 19 -5 -3 -7 -2 -6 3 2 4 -8
19 -21 32 -22 22 -23 25 -8 36 9 7 14 15 10 18 -3 4 -2 7 4 7 5 0 18 18 28 40
10 22 22 37 28 33 6 -3 7 -1 3 5 -6 11 5 39 30 72 6 8 14 26 17 40 3 14 15 51
26 84 28 73 39 135 42 217 1 35 6 70 12 77 6 8 6 12 0 12 -6 0 -14 28 -17 63
-10 86 -25 144 -51 199 -13 25 -21 49 -18 52 4 3 1 6 -6 6 -7 0 -10 4 -7 9 4
5 3 11 -1 13 -5 2 -19 16 -33 32 -14 16 -18 26 -10 21 24 -13 -51 58 -95 90
-46 33 -56 45 -48 58 3 5 -4 4 -16 -2 -14 -8 -21 -8 -21 -1 0 5 -9 10 -21 10
-11 0 -18 3 -16 8 3 4 -7 7 -21 8 -15 0 -56 6 -92 12 -36 7 -82 12 -103 12
l-38 0 3 64 c3 62 3 63 25 55 13 -5 37 -8 55 -7z"/>
<path d="M4316 2872 c-3 -5 1 -9 9 -9 8 0 12 4 9 9 -3 4 -7 8 -9 8 -2 0 -6 -4
-9 -8z"/>
<path d="M4291 2834 c6 -7 16 -11 21 -8 11 7 3 17 -18 20 -12 2 -13 -1 -3 -12z"/>
<path d="M3103 3355 c0 -8 4 -12 9 -9 5 3 6 10 3 15 -9 13 -12 11 -12 -6z"/>
<path d="M3810 3136 l0 -145 104 -128 c57 -70 108 -127 114 -126 6 2 9 -3 6
-10 -6 -17 167 -184 229 -220 81 -48 131 -59 295 -64 l152 -5 0 86 0 86 -152
0 c-180 0 -201 7 -296 101 -88 86 -262 306 -401 507 -24 34 -45 62 -47 62 -2
0 -4 -65 -4 -144z m42 45 c-1 -7 2 -10 7 -7 10 7 24 -10 27 -32 2 -7 14 -25
28 -39 24 -24 30 -36 27 -56 -1 -4 18 -27 41 -50 73 -73 73 -74 52 -100 -16
-19 -14 -18 10 3 16 14 26 19 22 13 -4 -8 -2 -13 5 -13 7 0 10 -3 6 -6 -3 -4
1 -13 9 -21 8 -8 12 -19 8 -24 -3 -5 -1 -8 4 -7 14 4 112 -104 105 -115 -3 -6
-2 -7 4 -4 12 7 46 -30 38 -43 -3 -5 0 -12 6 -16 8 -4 9 -3 5 4 -12 20 3 13
35 -15 17 -16 36 -27 41 -25 5 1 7 -2 3 -8 -3 -5 -1 -10 5 -10 6 0 8 -5 4 -11
-4 -7 1 -7 16 1 12 7 20 8 16 2 -3 -5 4 -12 17 -15 32 -8 253 -11 265 -3 6 4
16 -2 22 -11 9 -15 10 -15 4 6 -4 14 -2 21 4 17 5 -3 10 -35 10 -70 l0 -65
-141 4 c-101 2 -155 8 -187 20 -25 9 -55 19 -68 22 -14 3 -21 11 -18 19 3 8 0
11 -8 8 -7 -3 -21 2 -29 11 -9 9 -18 15 -19 15 -9 -3 -38 14 -38 22 0 7 5 6
14 -1 11 -9 15 -8 20 4 3 10 2 13 -5 10 -5 -4 -17 -1 -26 7 -12 9 -15 9 -9 1
11 -19 -9 -16 -25 4 -12 14 -12 16 0 8 10 -5 12 -4 7 3 -4 7 -13 12 -20 12 -7
0 -25 13 -40 29 -26 27 -27 30 -9 40 15 9 13 10 -11 5 -21 -5 -27 -4 -22 5 4
6 2 11 -5 11 -8 0 -5 9 7 23 10 12 12 16 4 10 -19 -17 -33 -16 -27 2 7 18 -9
30 -19 14 -4 -8 -3 -9 4 -5 7 4 12 5 12 2 0 -14 -19 -14 -31 1 -12 14 -12 16
1 9 8 -4 7 -1 -4 8 -10 8 -16 21 -13 29 3 7 -1 14 -9 14 -7 0 -10 -5 -7 -10 3
-6 1 -7 -5 -3 -7 4 -12 11 -12 17 0 5 -8 18 -17 28 -58 62 -64 73 -51 90 11
14 11 14 -3 4 -13 -11 -19 -8 -36 15 -18 24 -21 44 -22 131 -1 80 1 102 11 98
7 -2 12 -10 10 -16z m150 -185 c16 -29 -7 -11 -33 27 l-23 32 23 -20 c13 -11
27 -28 33 -39z"/>
<path d="M3990 2875 c-7 -8 -17 -12 -24 -8 -6 4 -5 -1 3 -10 13 -16 26 -15 26
1 0 4 4 13 8 20 11 17 2 15 -13 -3z"/>
<path d="M4056 2787 c3 -10 9 -15 12 -12 3 3 0 11 -7 18 -10 9 -11 8 -5 -6z"/>
<path d="M4105 2670 c10 -11 20 -20 22 -20 2 0 -2 9 -9 20 -7 11 -17 20 -22
20 -5 0 -1 -9 9 -20z"/>
<path d="M2470 3125 c0 -94 0 -95 24 -95 15 0 35 -12 52 -32 15 -18 247 -364
517 -768 269 -404 489 -736 490 -737 1 -1 72 112 156 250 85 139 221 361 303
494 l148 242 -60 59 c-39 38 -63 55 -69 48 -4 -6 -113 -182 -241 -391 -128
-209 -236 -384 -240 -388 -9 -10 -438 621 -843 1240 -112 172 -113 173 -203
173 l-34 0 0 -95z m95 56 c-5 -12 -3 -12 12 0 15 12 16 12 10 -3 -4 -11 -2
-15 6 -12 8 3 23 -14 37 -38 13 -24 34 -56 47 -72 13 -16 22 -35 19 -42 -3 -8
0 -11 10 -7 10 3 12 0 8 -10 -3 -8 0 -18 7 -23 8 -5 10 -3 4 7 -6 11 -5 11 4
3 17 -15 20 -45 9 -68 -7 -12 -7 -16 0 -12 6 3 13 2 17 -3 3 -6 11 -8 18 -6 7
3 20 -13 31 -34 10 -22 25 -42 33 -45 9 -4 12 -13 9 -24 -4 -12 3 -26 21 -43
l28 -24 -24 27 c-14 16 -22 30 -19 33 8 9 50 -56 44 -70 -3 -8 0 -17 6 -21 7
-5 8 -2 3 6 -5 9 -4 11 3 6 7 -4 12 -18 12 -31 0 -19 4 -23 18 -18 9 3 14 2 9
-2 -4 -5 4 -21 19 -36 14 -15 26 -30 25 -33 -4 -22 1 -36 10 -34 6 2 14 -3 17
-11 3 -9 0 -11 -9 -6 -8 5 -11 4 -6 -1 5 -5 14 -9 20 -9 7 0 12 -5 12 -11 0
-6 8 -18 17 -27 9 -10 20 -26 23 -37 4 -12 11 -17 18 -13 7 3 3 -4 -8 -18 -11
-13 -13 -18 -5 -12 13 10 21 6 43 -23 15 -18 23 -34 17 -34 -5 0 -10 -4 -10
-9 0 -5 8 -8 18 -7 11 1 16 -5 14 -18 -2 -10 1 -15 6 -12 5 3 19 -9 32 -26 12
-17 18 -28 11 -24 -24 15 -9 -10 19 -33 26 -20 28 -26 18 -39 -10 -12 -10 -14
0 -8 7 4 12 2 12 -4 0 -6 5 -8 12 -4 6 4 8 3 4 -4 -3 -6 -2 -13 4 -17 6 -4 8
-11 4 -16 -3 -5 0 -8 8 -7 8 2 12 -4 10 -16 -2 -10 1 -15 7 -12 12 8 34 -30
26 -44 -3 -5 0 -7 8 -4 11 4 14 -2 12 -20 -2 -15 1 -24 6 -20 5 3 6 10 3 16
-4 7 -2 8 4 4 9 -5 9 -13 0 -29 -10 -19 -9 -20 3 -10 12 10 18 8 29 -10 8 -12
14 -24 15 -27 0 -3 10 -20 23 -37 13 -18 20 -38 17 -43 -4 -6 -3 -9 2 -8 5 2
23 -13 41 -33 33 -38 41 -56 20 -43 -10 6 -9 3 0 -8 13 -16 55 -22 46 -6 -3 4
-12 5 -22 2 -9 -2 -7 0 4 7 12 6 28 23 35 38 7 14 23 35 34 46 12 11 14 16 6
10 -12 -8 -13 -7 -6 5 15 27 37 50 45 45 4 -2 7 2 7 10 0 8 -5 11 -10 8 -6 -4
1 9 16 29 15 19 27 38 27 43 0 4 14 25 31 46 17 21 28 39 24 39 -3 0 4 14 16
31 16 23 24 28 30 17 5 -7 9 -8 9 -2 0 5 -5 15 -11 21 -8 8 -7 13 2 18 8 6 10
4 4 -5 -5 -8 -4 -11 3 -6 6 3 16 22 22 41 7 21 16 32 23 28 6 -4 8 0 4 10 -3
10 -2 17 2 17 5 0 20 17 32 38 30 47 36 63 15 37 -17 -20 -17 -20 -7 0 5 11
18 29 30 39 11 10 18 23 15 27 -3 5 0 9 5 9 6 0 11 5 11 11 0 7 8 18 18 26 9
8 11 11 3 7 -8 -4 3 18 24 48 l39 56 29 -29 c15 -16 25 -35 21 -41 -4 -6 -3
-8 3 -5 6 4 13 -2 16 -13 7 -25 4 -36 -6 -32 -5 1 -7 -3 -5 -10 2 -6 -5 -23
-16 -36 -12 -13 -21 -29 -21 -35 -1 -19 -16 -38 -26 -32 -5 3 -6 0 -3 -8 3 -8
-2 -20 -10 -27 -9 -7 -13 -16 -10 -21 3 -5 0 -9 -5 -9 -6 0 -11 -7 -11 -15 0
-8 -5 -15 -10 -15 -6 0 -9 -5 -8 -11 2 -6 -3 -14 -10 -16 -6 -3 -10 1 -9 9 2
7 2 10 0 5 -3 -4 -10 -4 -16 0 -7 3 -3 -3 7 -15 20 -23 9 -31 -13 -9 -11 10
-12 9 -5 -3 13 -22 11 -33 -6 -48 -13 -12 -13 -12 0 -6 13 7 13 6 0 -12 -8
-10 -17 -21 -20 -24 -18 -16 -52 -72 -39 -65 7 5 0 -6 -18 -25 -18 -18 -30
-37 -26 -43 3 -5 1 -12 -4 -16 -16 -11 -57 -75 -42 -66 7 4 4 -2 -8 -14 -13
-12 -23 -28 -23 -36 0 -8 -7 -18 -16 -23 -9 -5 -15 -12 -15 -15 3 -20 0 -30
-6 -24 -8 9 -33 -12 -33 -27 0 -6 5 -4 10 4 5 8 10 10 10 5 0 -18 -31 -56 -41
-50 -5 3 -6 -1 -3 -9 3 -9 2 -16 -4 -16 -5 0 -12 -9 -15 -21 -4 -13 -10 -18
-18 -13 -7 4 -10 3 -6 -4 6 -9 -29 -89 -44 -102 -3 -3 -9 -12 -12 -20 -4 -12
-6 -12 -6 1 -1 9 -8 19 -16 23 -8 3 -15 12 -15 19 0 8 -7 20 -15 27 -9 7 -14
19 -11 26 3 8 0 13 -7 11 -6 -1 -22 18 -34 42 -13 25 -27 49 -33 55 -5 5 -10
19 -11 31 0 11 -3 15 -6 7 -3 -9 -14 -1 -30 23 -13 20 -22 43 -19 51 3 8 2 13
-3 9 -5 -3 -18 6 -28 19 -54 73 -78 108 -78 114 0 4 -4 13 -9 20 -4 7 -2 20 6
30 12 16 11 16 -6 2 -16 -13 -20 -12 -33 5 -7 11 -12 28 -9 38 2 9 1 15 -4 12
-9 -6 -27 14 -32 35 -2 8 -11 21 -20 28 -10 7 -18 20 -18 28 0 8 -4 13 -8 10
-4 -2 -14 5 -22 17 -11 19 -11 21 1 12 11 -7 11 -6 -1 5 -8 8 -22 24 -30 35
-13 17 -13 18 0 11 8 -4 4 1 -9 12 -16 13 -22 25 -18 36 4 11 3 15 -4 10 -7
-4 -9 1 -5 17 3 13 3 18 0 12 -3 -7 -10 -13 -15 -13 -5 0 -8 6 -6 13 1 6 -5
11 -13 9 -8 -2 -12 0 -8 4 4 4 -6 22 -22 41 -17 19 -28 38 -25 44 4 5 1 9 -6
9 -8 0 -8 4 -1 13 8 9 8 17 0 27 -8 12 -9 12 -4 -2 8 -26 -9 -22 -28 7 -9 14
-14 25 -11 25 4 0 -10 17 -29 38 -20 20 -39 46 -42 57 -4 11 -14 26 -23 33 -9
8 -10 10 -3 7 11 -6 11 -3 1 13 -7 12 -17 19 -21 16 -4 -3 -5 3 -1 13 3 10 2
15 -2 10 -12 -10 -66 75 -59 93 3 8 2 11 -2 7 -9 -9 -44 22 -44 38 0 7 -9 20
-20 30 -11 10 -20 24 -20 32 0 7 -5 13 -11 13 -6 0 -8 7 -5 16 3 8 2 12 -4 9
-6 -3 -10 -2 -10 2 0 13 -54 69 -78 82 -19 10 -22 20 -22 76 0 67 4 73 53 71
19 -1 26 -5 22 -15z m205 -272 c0 -6 -4 -7 -10 -4 -5 3 -10 11 -10 16 0 6 5 7
10 4 6 -3 10 -11 10 -16z"/>
<path d="M2653 3053 c4 -3 1 -13 -6 -22 -11 -14 -10 -14 5 -2 16 12 16 31 1
31 -4 0 -3 -3 0 -7z"/>
<path d="M2675 2869 c-4 -6 -5 -12 -2 -15 2 -3 7 2 10 11 7 17 1 20 -8 4z"/>
<path d="M2804 2740 c0 -13 4 -16 10 -10 7 7 7 13 0 20 -6 6 -10 3 -10 -10z"/>
<path d="M3045 2310 c-2 -3 9 -6 25 -6 17 0 27 2 25 5 -8 7 -45 9 -50 1z"/>
<path d="M3176 2277 c3 -10 9 -15 12 -12 3 3 0 11 -7 18 -10 9 -11 8 -5 -6z"/>
<path d="M3204 2199 c-3 -6 -1 -16 5 -22 9 -9 10 -7 5 7 -6 15 -4 17 6 11 9
-5 11 -4 6 3 -9 15 -13 15 -22 1z"/>
<path d="M3206 2072 c-3 -4 4 -9 15 -9 23 -2 25 3 4 10 -8 4 -16 3 -19 -1z"/>
<path d="M3380 1810 c0 -5 5 -10 11 -10 5 0 7 5 4 10 -3 6 -8 10 -11 10 -2 0
-4 -4 -4 -10z"/>
<path d="M3540 1596 c0 -2 8 -10 18 -17 15 -13 16 -12 3 4 -13 16 -21 21 -21
13z"/>
<path d="M2666 3177 c3 -10 9 -15 12 -12 3 3 0 11 -7 18 -10 9 -11 8 -5 -6z"/>
<path d="M3165 3160 c10 -11 20 -20 23 -20 3 0 -3 9 -13 20 -10 11 -20 20 -23
20 -3 0 3 -9 13 -20z"/>
<path d="M2073 3007 c-148 -224 -249 -333 -345 -377 -38 -17 -66 -20 -245 -20
l-203 0 0 -85 0 -85 178 0 c211 0 276 9 362 52 76 37 207 163 285 273 l50 69
5 148 c3 82 3 148 0 148 -3 0 -42 -56 -87 -123z m70 -38 c-1 -55 -4 -103 -7
-106 -3 -4 -6 -12 -6 -19 0 -36 -183 -249 -203 -237 -6 3 -7 2 -4 -4 8 -13
-38 -57 -52 -49 -5 4 -13 1 -17 -5 -5 -8 -2 -10 7 -5 8 4 5 0 -5 -8 -11 -9
-26 -16 -33 -16 -7 0 -13 -4 -13 -10 0 -5 -8 -7 -17 -3 -10 3 -15 2 -10 -2 4
-5 -10 -15 -30 -23 -27 -9 -100 -15 -246 -18 l-208 -4 3 62 3 61 143 -1 c79
-1 148 -4 154 -8 7 -5 8 -2 3 6 -6 9 2 11 34 5 31 -5 41 -4 41 7 0 10 3 9 10
-2 5 -8 10 -10 10 -5 0 6 20 18 44 28 39 16 187 150 224 203 7 11 11 14 8 8
-3 -6 1 -11 9 -11 10 0 11 5 5 17 -7 13 -1 26 28 55 20 21 30 34 22 30 -9 -5
-8 1 5 16 26 32 37 39 49 32 5 -3 6 -1 2 6 -4 6 -12 8 -18 5 -6 -4 0 7 12 24
13 17 28 28 34 25 6 -3 8 -3 4 2 -6 6 7 45 15 45 1 0 1 -45 0 -101z"/>
<path d="M1890 2679 c0 -5 5 -7 10 -4 6 3 10 8 10 11 0 2 -4 4 -10 4 -5 0 -10
-5 -10 -11z"/>
<path d="M4246 3028 c3 -5 10 -6 15 -3 13 9 11 12 -6 12 -8 0 -12 -4 -9 -9z"/>
<path d="M2505 2990 c-4 -6 -12 -7 -18 -4 -7 4 -8 3 -4 -1 13 -15 34 -14 34 1
0 17 -4 18 -12 4z"/>
<path d="M3010 2836 c-16 -25 -30 -49 -30 -55 0 -12 92 -139 101 -140 9 -1 70
101 69 114 -1 13 -93 125 -102 125 -4 0 -21 -20 -38 -44z m50 4 c0 -6 11 -20
25 -32 14 -12 25 -28 25 -35 0 -8 4 -12 9 -9 5 3 11 0 14 -8 6 -16 -30 -59
-43 -51 -4 3 -6 -4 -3 -15 3 -12 0 -20 -8 -20 -7 0 -9 3 -6 7 4 3 -8 20 -26
36 -17 17 -25 26 -17 22 8 -4 5 2 -7 14 -28 27 -33 62 -6 40 9 -8 14 -9 10 -2
-9 14 9 63 23 63 5 0 10 -5 10 -10z"/>
<path d="M3870 2836 c0 -2 8 -10 18 -17 15 -13 16 -12 3 4 -13 16 -21 21 -21
13z"/>
<path d="M3490 2796 c0 -2 8 -10 18 -17 15 -13 16 -12 3 4 -13 16 -21 21 -21
13z"/>
<path d="M2986 2687 c3 -10 9 -15 12 -12 3 3 0 11 -7 18 -10 9 -11 8 -5 -6z"/>
<path d="M1925 2479 c-33 -28 -59 -55 -57 -60 1 -5 49 -83 105 -172 57 -89
179 -283 272 -430 134 -214 171 -265 180 -255 7 7 83 128 170 268 87 140 194
311 237 379 l79 124 -33 53 c-18 30 -41 65 -53 79 l-20 26 -64 -103 c-36 -57
-124 -199 -197 -316 l-132 -212 -208 335 c-115 184 -211 334 -214 334 -3 0
-32 -23 -65 -50z m70 -2 c1 -7 6 -11 11 -10 6 1 20 -20 32 -48 12 -27 26 -49
32 -49 5 0 10 -8 10 -19 0 -10 11 -30 24 -44 13 -14 22 -28 19 -31 -3 -3 13
-27 36 -53 27 -30 40 -54 38 -65 -3 -10 -1 -16 3 -13 5 3 11 -4 15 -15 3 -11
11 -20 16 -20 6 0 8 -4 4 -9 -3 -6 3 -14 12 -20 10 -6 14 -11 9 -11 -5 0 -3
-7 4 -15 6 -8 8 -20 4 -27 -6 -9 -3 -9 9 1 15 12 17 12 11 -3 -4 -11 1 -22 14
-32 27 -18 74 -103 65 -118 -3 -6 -2 -8 2 -3 5 4 15 1 24 -6 21 -18 54 -30 46
-17 -3 6 -1 10 5 10 7 0 10 7 6 15 -3 8 2 19 12 24 9 6 13 11 7 11 -5 0 1 10
15 21 14 11 19 18 12 14 -11 -6 -12 -3 -2 14 6 12 15 19 20 16 5 -3 12 0 16 6
4 8 3 9 -4 5 -21 -13 -13 13 9 28 13 9 18 19 14 27 -5 7 -4 10 1 6 5 -3 18 15
29 39 11 26 25 42 32 40 7 -3 10 1 6 11 -4 9 1 19 11 25 9 5 14 13 11 19 -4 5
-2 9 4 9 5 0 12 -6 15 -12 3 -7 3 -2 0 11 -4 14 -2 21 4 17 5 -3 10 0 9 7 -1
31 4 48 13 42 5 -3 8 -11 6 -18 -1 -7 -1 -9 1 -4 3 4 10 4 16 0 7 -4 6 1 -2
10 -11 14 -11 20 0 34 12 15 12 16 -1 8 -13 -8 -13 -7 0 11 8 10 23 25 33 33
10 7 16 19 13 26 -3 8 2 19 10 26 9 7 22 25 30 41 16 31 34 37 34 12 0 -9 5
-12 13 -8 7 5 6 0 -3 -11 -8 -10 -10 -16 -3 -12 14 9 48 -37 38 -52 -4 -7 1
-8 12 -4 16 6 16 5 4 -10 -7 -9 -10 -17 -5 -17 5 0 1 -5 -8 -11 -10 -5 -18
-19 -18 -29 0 -20 -15 -35 -23 -23 -2 5 -3 3 -1 -3 1 -6 -3 -17 -9 -23 -6 -6
-8 -11 -3 -11 4 0 1 -6 -6 -14 -29 -30 -46 -55 -42 -59 8 -8 -43 -72 -56 -69
-10 2 -11 0 -2 -11 13 -16 -7 -52 -29 -52 -7 0 -14 -7 -16 -15 -4 -13 -3 -13
6 0 6 8 11 10 11 5 0 -11 -22 -43 -51 -74 -8 -10 -13 -23 -11 -31 3 -8 0 -10
-8 -5 -10 6 -12 4 -7 -9 6 -14 3 -17 -8 -12 -10 3 -13 2 -10 -5 4 -6 -1 -20
-12 -31 -10 -12 -12 -18 -5 -14 11 7 11 4 0 -13 -7 -12 -19 -19 -26 -16 -7 3
-10 0 -7 -6 4 -5 1 -17 -6 -25 -10 -13 -14 -12 -33 3 -21 18 -21 18 -3 -3 24
-29 22 -43 -15 -83 -18 -18 -27 -31 -21 -27 9 5 11 2 7 -8 -3 -9 -10 -14 -14
-11 -4 3 -11 -6 -14 -20 -9 -35 -22 -31 -45 13 -11 20 -20 33 -21 27 0 -5 -7
3 -15 19 -8 15 -12 33 -8 39 4 6 1 7 -7 2 -10 -6 -12 -4 -7 8 4 11 2 14 -9 10
-13 -5 -16 -1 -18 30 -2 18 -20 36 -31 29 -5 -3 -2 7 9 23 17 27 17 28 1 13
-17 -16 -19 -15 -38 20 -10 20 -29 48 -41 61 -11 13 -15 21 -8 16 11 -6 12 -3
3 14 -7 11 -14 21 -17 21 -3 0 -2 -5 2 -12 4 -7 3 -8 -4 -4 -8 5 -9 13 -2 25
10 20 4 32 -13 26 -13 -5 -48 37 -51 60 -1 8 -12 25 -25 39 -12 13 -23 35 -25
50 -1 14 -6 29 -11 34 -4 4 -5 0 0 -8 4 -8 -1 -6 -12 5 -11 11 -19 23 -16 28
2 4 -1 7 -7 7 -7 0 -10 5 -8 12 3 7 -5 21 -17 33 -12 11 -20 26 -17 34 2 8 0
11 -6 8 -5 -4 -15 7 -22 23 -7 17 -17 30 -22 30 -6 0 -8 7 -5 15 4 8 1 17 -5
21 -7 5 -8 2 -3 -6 5 -9 4 -11 -3 -6 -7 4 -12 21 -12 38 0 17 2 29 5 26 3 -3
21 10 41 30 33 33 48 35 49 9z"/>
<path d="M2826 2333 c-6 -14 -5 -15 5 -6 7 7 10 15 7 18 -3 3 -9 -2 -12 -12z"/>
<path d="M2048 2228 c6 -6 8 -18 5 -27 -4 -14 -3 -14 5 -1 18 27 17 33 -2 36
-13 2 -15 -1 -8 -8z"/>
<path d="M2600 2105 c0 -2 6 -8 13 -14 10 -8 14 -7 14 2 0 8 -6 14 -14 14 -7
0 -13 -1 -13 -2z"/>
<path d="M2138 2072 c7 -5 10 -17 7 -28 -6 -17 -6 -18 5 -1 12 19 6 37 -13 37
-9 0 -8 -3 1 -8z"/>
<path d="M2456 1878 c3 -5 10 -6 15 -3 13 9 11 12 -6 12 -8 0 -12 -4 -9 -9z"/>
</g>
</svg>
